<?xml version="1.0" standalone="no"?>
<!DOCTYPE svg PUBLIC "-//W3C//DTD SVG 20010904//EN"
 "http://www.w3.org/TR/2001/REC-SVG-20010904/DTD/svg10.dtd">
<svg version="1.0" xmlns="http://www.w3.org/2000/svg"
 width="508.000000pt" height="508.000000pt" viewBox="0 0 508.000000 508.000000"
 preserveAspectRatio="xMidYMid meet">
<metadata>
Created by potrace 1.14, written by Peter Selinger 2001-2017
</metadata>
<g transform="translate(0.000000,508.000000) scale(0.100000,-0.100000)"
fill="#000000" stroke="none">
<path d="M2390 5073 c-185 -14 -411 -60 -589 -120 -564 -189 -1014 -536 -1350
-1040 -55 -83 -191 -322 -191 -337 0 -3 -13 -34 -29 -69 -184 -402 -243 -942
-156 -1427 19 -104 30 -151 66 -277 56 -196 161 -427 276 -607 45 -70 147
-211 167 -232 6 -6 27 -31 46 -55 56 -71 268 -279 360 -352 381 -305 874 -503
1350 -544 152 -13 469 -6 522 12 7 2 31 6 53 9 55 8 87 14 185 37 697 162
1325 650 1658 1289 135 259 237 585 268 855 3 28 9 77 13 109 9 69 7 398 -3
471 -9 66 -35 225 -40 250 -76 360 -236 706 -471 1020 -78 104 -300 341 -390
415 -333 276 -787 494 -1155 555 -19 3 -42 8 -50 10 -8 2 -40 7 -70 10 -30 3
-73 8 -95 12 -43 6 -317 10 -375 6z m315 -257 c54 -4 108 -9 120 -11 11 -2 37
-7 57 -10 260 -36 595 -168 858 -339 187 -121 408 -324 542 -496 252 -326 431
-716 474 -1036 3 -27 8 -51 9 -54 25 -42 26 -511 1 -660 -49 -295 -149 -572
-296 -820 -59 -101 -178 -261 -265 -358 -16 -19 -34 -40 -38 -48 -7 -12 -12
-11 -26 8 -42 54 -42 62 -4 104 158 175 333 462 417 681 115 304 162 636 133
958 -7 82 -8 88 -32 215 -69 367 -272 770 -530 1049 -222 242 -440 406 -700
530 -61 29 -212 89 -240 95 -5 1 -41 12 -80 24 -96 29 -205 50 -345 68 -130
16 -387 11 -527 -11 -388 -61 -826 -273 -1110 -538 -473 -442 -733 -1013 -737
-1617 0 -86 10 -254 18 -300 3 -14 7 -43 11 -65 3 -22 7 -47 10 -55 2 -8 6
-26 9 -40 26 -136 88 -308 176 -485 82 -166 164 -296 269 -424 115 -141 108
-125 76 -167 l-28 -36 -48 53 c-292 321 -512 785 -564 1189 -3 25 -10 77 -14
115 -9 71 -7 381 3 445 3 19 8 53 11 75 3 22 7 51 10 65 3 14 8 39 10 55 12
66 59 227 102 344 213 589 718 1111 1301 1347 128 52 345 111 477 130 22 3 51
7 65 10 14 2 75 7 135 10 61 4 111 7 112 8 2 2 64 -1 178 -8z m-15 -211 c113
-7 289 -45 425 -90 104 -35 316 -133 342 -158 10 -10 -47 -12 -255 -12 -147 1
-272 -1 -279 -3 -18 -6 -11 -40 13 -63 21 -20 35 -20 365 -22 338 -2 345 -2
380 -25 82 -50 85 -50 -258 -50 -390 0 -360 1 -345 -14 7 -7 12 -20 12 -29 0
-36 20 -39 386 -42 382 -4 392 -5 437 -54 17 -20 14 -20 -280 -20 l-298 0 -3
-35 c-2 -28 1 -36 17 -41 21 -5 142 -8 458 -10 l203 -2 32 -32 33 -33 -125 0
c-69 -1 -227 -1 -353 -1 l-227 0 5 -32 c4 -17 11 -35 18 -39 15 -10 11 -10
404 -12 l332 -2 31 -29 c24 -23 28 -31 15 -35 -8 -3 -184 -5 -390 -5 l-375 0
0 -37 c0 -34 3 -38 28 -39 15 -1 199 -2 409 -3 l383 -1 27 -27 c15 -15 24 -30
21 -33 -3 -3 -197 -6 -433 -6 l-427 -1 6 -30 c3 -17 6 -36 6 -42 0 -8 120 -11
438 -11 240 0 445 -1 455 -3 10 -3 24 -17 33 -33 l15 -29 -385 0 -385 0 6 -32
c3 -18 10 -37 15 -43 5 -6 155 -10 393 -10 237 0 388 -4 394 -10 5 -6 19 -34
30 -62 12 -29 30 -74 40 -101 l19 -47 -282 1 c-154 0 -286 -4 -293 -8 -11 -9
-10 -44 2 -56 3 -4 135 -7 293 -8 264 -2 287 -4 300 -21 12 -17 2 -18 -260
-23 l-273 -5 -97 -68 -98 -68 0 79 c0 95 13 81 -210 226 -91 60 -225 147 -297
195 -73 47 -136 95 -139 106 -4 11 -7 102 -7 202 1 123 -3 186 -10 197 -11 13
-516 349 -565 375 -28 15 -37 10 -192 -93 -74 -49 -199 -131 -277 -182 -79
-52 -144 -95 -145 -96 -1 -2 -4 -95 -7 -208 l-6 -205 -317 -210 c-175 -115
-320 -218 -324 -228 -3 -9 -6 -46 -6 -82 -1 -36 -4 -65 -8 -65 -3 0 -40 23
-80 51 -122 84 -100 79 -385 79 -248 0 -255 1 -255 20 0 14 7 20 23 21 12 0
135 2 272 3 138 1 260 6 273 10 22 8 30 40 12 51 -6 3 -132 7 -280 8 -149 1
-270 6 -270 10 0 13 70 191 79 200 4 4 180 9 390 11 211 1 386 7 390 12 5 5
12 23 15 40 l7 32 -371 0 c-204 0 -373 2 -376 5 -10 10 6 45 24 52 9 4 208 9
442 11 423 2 425 2 442 24 10 12 18 30 18 40 0 17 -22 18 -425 17 -278 -1
-425 1 -425 8 0 6 9 21 19 35 l19 24 401 2 c305 1 404 4 416 14 21 18 19 49
-5 58 -11 4 -184 7 -385 7 -201 0 -365 1 -365 3 0 2 5 12 10 22 23 42 40 44
414 46 260 1 361 5 366 14 4 6 7 23 6 38 l-1 27 -330 1 c-181 1 -336 2 -343 3
-23 2 17 49 51 59 18 6 163 10 322 11 160 1 302 4 316 7 23 4 27 10 27 40 l0
34 -51 1 c-29 0 -157 1 -285 1 -128 1 -235 5 -237 8 -2 4 9 20 26 36 l29 28
288 2 c158 2 331 3 385 3 91 1 97 2 97 22 0 11 5 29 10 40 10 19 4 19 -325 19
l-337 0 29 24 c61 50 58 50 409 52 181 1 340 4 351 8 20 6 33 27 39 64 3 14
18 13 -314 14 -174 0 -250 3 -246 10 19 30 374 178 488 203 174 38 203 42 311
51 44 4 81 7 82 9 3 2 88 -2 203 -10z m-220 -650 c0 -53 -4 -68 -22 -85 -12
-11 -25 -20 -30 -20 -4 0 -11 0 -15 0 -4 0 -8 25 -8 56 -1 49 3 60 28 85 16
16 33 29 38 29 5 0 9 -29 9 -65z m210 8 c5 -12 9 -44 8 -72 0 -59 -14 -66 -53
-26 -22 21 -25 33 -25 90 l0 66 31 -18 c17 -10 35 -28 39 -40z m-390 -118 c0
-57 -3 -69 -25 -90 -37 -38 -45 -32 -45 40 0 57 3 67 27 90 15 14 31 25 35 25
5 0 8 -29 8 -65z m560 14 c6 -10 10 -45 10 -79 l0 -61 -29 17 c-34 20 -41 38
-41 117 l0 57 25 -16 c14 -9 30 -25 35 -35z m-728 -134 c2 -60 -1 -69 -23 -86
-40 -31 -46 -24 -45 47 1 61 4 68 31 90 16 13 31 22 32 20 2 -2 4 -33 5 -71z
m898 28 c4 -4 8 -133 3 -133 -1 0 -13 5 -27 12 -31 13 -39 35 -41 110 l-1 57
30 -21 c17 -12 33 -23 36 -25z m-339 -76 c1 -12 3 -302 5 -644 l3 -623 -33
-25 c-18 -14 -36 -25 -40 -25 -8 0 -7 1327 1 1347 8 20 63 -5 64 -30z m-216
-634 c0 -433 -4 -667 -10 -669 -17 -5 -45 22 -53 52 -7 26 -9 1023 -2 1212 l3
72 31 0 31 0 0 -667z m383 513 c11 -41 16 -1216 5 -1216 -4 1 -21 11 -36 24
l-28 23 1 454 c1 250 3 501 5 559 2 58 4 126 4 152 1 41 3 46 21 41 12 -3 23
-18 28 -37z m-565 2 c3 -13 6 -79 5 -148 0 -69 1 -318 2 -555 0 -236 1 -440 0
-452 0 -15 -11 -28 -30 -38 -16 -9 -31 -14 -31 -13 -1 2 -2 279 -3 616 l-1
612 26 0 c20 0 28 -6 32 -22z m737 -678 c0 -355 -4 -620 -9 -620 -5 0 -19 9
-32 19 l-24 19 0 574 c0 315 2 583 4 595 3 19 10 24 54 32 4 0 7 -278 7 -619z
m-899 585 c1 -14 1 -1104 0 -1133 -1 -23 -42 -72 -60 -72 -7 0 -8 859 -1 1203
0 13 7 17 30 15 17 -1 30 -7 31 -13z m-181 -257 c1 -40 3 -273 4 -518 l2 -445
-29 -28 c-17 -15 -32 -26 -34 -23 -7 6 -3 1047 3 1058 3 5 16 13 28 18 11 5
21 9 22 9 1 1 2 -32 4 -71z m1243 42 c11 -16 14 -115 16 -540 l2 -521 -29 15
c-16 8 -32 26 -35 38 -8 33 0 989 8 1011 9 22 21 22 38 -3z m-1400 -565 c0
-267 -3 -489 -7 -492 -4 -4 -18 5 -32 19 l-26 26 0 447 1 447 27 23 c16 13 30
22 32 20 3 -2 5 -223 5 -490z m1553 464 c18 -20 19 -43 19 -465 0 -440 0 -444
-21 -465 -12 -12 -26 -19 -31 -16 -6 4 -11 921 -4 960 2 13 18 7 37 -14z
m-1721 -486 c0 -217 -3 -397 -6 -399 -13 -8 -36 7 -46 29 -5 12 -9 176 -9 374
l1 351 24 26 c14 14 27 23 30 20 3 -3 6 -183 6 -401z m1885 377 c11 -11 20
-34 21 -52 4 -152 0 -670 -6 -687 -7 -22 -42 -47 -52 -37 -4 4 -8 745 -4 789
2 13 21 7 41 -13z m-2040 -424 c2 -328 1 -350 -17 -374 -29 -39 -43 -39 -44 0
-1 36 -1 632 0 661 1 16 50 71 57 64 2 -2 4 -160 4 -351z m2198 326 c18 -18
19 -42 19 -375 0 -197 -3 -357 -7 -357 -4 0 -18 10 -31 23 l-24 22 1 345 c1
190 2 348 3 353 2 13 20 8 39 -11z m-2646 -21 c4 -1 43 -33 88 -71 91 -78 127
-100 165 -100 21 0 26 -4 23 -22 -4 -27 -49 -39 -88 -24 -25 10 -119 76 -154
108 -11 10 -36 26 -56 36 -33 16 -61 18 -249 16 -199 -2 -211 -1 -211 16 0 11
3 21 8 24 4 2 90 7 192 10 101 4 185 7 186 9 2 2 71 0 96 -2z m3530 -17 c5 -3
8 -14 8 -24 0 -18 -11 -18 -207 -16 -115 1 -218 0 -229 -2 -12 -2 -64 -37
-115 -78 -97 -76 -137 -93 -199 -85 -5 0 -10 10 -10 20 0 14 13 24 51 36 33
11 71 36 112 74 107 99 80 92 347 85 129 -3 238 -8 242 -10z m-3579 -146 c12
-6 58 -39 102 -73 94 -73 125 -90 183 -100 35 -6 42 -10 42 -30 0 -27 -13 -34
-55 -29 -58 6 -73 14 -191 100 l-118 87 -86 -14 c-47 -7 -107 -13 -135 -13
-102 2 -174 7 -186 15 -14 8 -22 39 -11 39 4 1 79 3 167 5 88 3 180 9 205 14
25 5 49 9 53 10 5 0 18 -4 30 -11z m3257 -4 c14 -3 97 -7 185 -9 88 -2 163 -4
168 -4 16 -2 6 -31 -15 -42 -22 -12 -270 -15 -318 -5 -86 20 -79 22 -204 -68
-118 -85 -164 -107 -218 -103 -23 2 -28 7 -28 30 0 21 5 27 23 28 59 2 92 18
183 90 96 77 141 101 174 94 14 -3 36 -8 50 -11z m-3185 -231 c140 -102 177
-123 225 -123 27 0 30 -3 30 -30 0 -31 0 -31 -48 -27 -62 6 -71 11 -222 121
l-125 91 -60 -4 c-33 -2 -121 -4 -195 -5 -133 -1 -135 -1 -138 22 -3 21 0 22
55 23 32 1 69 2 83 4 14 1 61 6 105 10 44 4 81 8 83 10 2 1 20 3 40 3 32 1 57
-14 167 -95z m3236 81 c40 -6 138 -11 247 -13 54 -1 62 -4 62 -20 0 -10 -8
-21 -17 -23 -28 -7 -252 -3 -313 6 l-55 8 -138 -101 c-133 -97 -181 -121 -239
-121 -24 0 -28 4 -28 29 0 26 4 30 28 29 45 0 79 18 211 116 140 103 146 107
179 100 13 -3 41 -7 63 -10z m-3259 -240 c160 -113 199 -134 248 -134 23 0 30
-5 30 -19 0 -24 -15 -30 -68 -25 -50 4 -89 24 -202 104 -47 33 -111 76 -142
96 l-57 35 -68 -11 c-37 -6 -86 -14 -108 -17 -22 -3 -60 -9 -85 -13 -24 -5
-48 -6 -52 -4 -16 10 -8 44 10 45 9 0 24 2 32 4 8 1 33 6 55 9 22 4 69 13 105
20 135 28 134 28 302 -90z m3333 92 c11 -2 68 -12 128 -21 94 -16 107 -20 107
-38 0 -18 -5 -19 -72 -14 -40 4 -109 13 -153 22 -44 8 -85 15 -92 15 -11 0
-168 -102 -283 -185 -53 -38 -91 -51 -145 -50 -34 0 -41 4 -43 23 -3 19 1 22
28 22 57 0 130 43 338 198 55 41 59 43 112 38 30 -3 64 -7 75 -10z m-3428
-199 l85 -62 -38 -3 c-31 -3 -48 4 -95 37 -32 23 -67 41 -77 41 -11 0 -74 -18
-141 -40 -66 -22 -123 -40 -126 -40 -3 0 -5 10 -5 23 0 21 14 28 133 70 76 26
142 44 155 41 13 -2 62 -33 109 -67z m3528 19 c104 -36 120 -44 117 -61 -2
-11 -5 -21 -6 -22 -1 -1 -56 15 -122 37 -65 22 -128 40 -140 40 -12 0 -36 -11
-55 -25 -62 -44 -90 -56 -126 -53 l-36 3 94 67 c109 78 90 77 274 14z m-2015
-27 c33 -24 60 -46 60 -49 0 -4 -11 -13 -25 -20 -22 -12 -29 -10 -64 13 -50
33 -61 33 -107 2 -36 -24 -47 -27 -99 -27 -14 0 -31 0 -37 1 -7 0 30 30 82 65
52 35 103 62 112 60 9 -1 44 -22 78 -45z m405 -14 c55 -36 94 -65 88 -66 -7
-1 -19 -2 -25 -3 -27 -4 -94 16 -120 34 -36 26 -50 25 -99 -6 -39 -24 -42 -25
-66 -9 -14 9 -21 21 -17 25 21 21 120 89 129 89 6 0 55 -29 110 -64z m-2061
-61 c27 -10 18 -20 -20 -20 -31 0 -33 2 -18 13 21 15 18 15 38 7z m3576 -13
c0 -4 -13 -7 -30 -7 -30 0 -41 11 -17 19 15 5 47 -3 47 -12z m-497 -72 c361
-1 657 -6 657 -10 0 -5 -17 -10 -37 -10 -21 -1 -47 -3 -58 -4 -45 -5 -277 -23
-390 -30 -154 -10 -808 -16 -1695 -16 -828 -1 -1072 2 -1255 16 -38 3 -104 7
-145 10 -135 8 -254 17 -280 20 -14 2 -38 4 -54 4 -16 1 -27 4 -23 7 3 4 444
9 979 11 535 3 974 6 975 7 1 0 151 0 335 -1 183 -1 629 -3 991 -4z m577 -171
c0 -4 -21 -8 -47 -9 -27 0 -59 -2 -73 -4 -14 -1 -65 -6 -115 -9 -117 -9 -125
-10 -133 -23 -9 -13 -3092 -14 -3092 -1 0 5 4 6 10 3 5 -3 18 -1 27 4 14 8 9
11 -27 11 -25 1 -69 3 -97 5 -29 3 -77 7 -105 10 -29 2 -75 5 -103 5 -34 1
-44 4 -30 9 27 11 3785 10 3785 -1z m40 6 c0 -8 -19 -13 -24 -6 -3 5 1 9 9 9
8 0 15 -2 15 -3z m-360 -56 c0 -4 -9 -8 -20 -8 -11 0 -20 4 -20 8 0 4 9 8 20
8 11 0 20 -4 20 -8z m80 -4 c0 -2 -16 -4 -36 -4 -19 0 -33 4 -30 8 5 8 66 4
66 -4z m-3242 -1 c-10 -2 -26 -2 -35 0 -10 3 -2 5 17 5 19 0 27 -2 18 -5z
m1807 -236 c39 -14 87 -32 107 -41 l38 -16 -26 -58 c-14 -31 -35 -78 -46 -104
-11 -27 -24 -48 -28 -48 -4 0 -34 12 -66 27 -76 34 -200 44 -239 19 -17 -11
-25 -26 -25 -45 0 -36 12 -45 85 -66 124 -34 221 -68 250 -88 135 -91 152
-272 39 -407 -77 -91 -242 -134 -411 -108 -66 10 -201 61 -236 88 l-25 20 46
104 46 104 66 -33 c101 -52 199 -68 269 -44 53 19 59 73 12 98 -10 6 -70 24
-132 41 -129 35 -184 63 -229 117 -107 130 -51 353 108 429 103 49 274 54 397
11z m-1318 -6 l61 -1 0 -282 c-1 -242 1 -288 15 -314 27 -52 73 -72 153 -66
28 3 82 55 91 89 4 16 7 151 7 300 l1 273 30 1 c39 1 161 1 203 0 l33 -1 -1
-306 c-1 -292 -2 -309 -24 -368 -51 -141 -172 -229 -333 -243 -178 -16 -336
69 -407 217 l-31 65 -1 317 c-1 279 0 317 14 320 8 2 40 2 71 1 31 -1 84 -2
118 -2z m1880 -4 c3 -4 6 -79 6 -167 l-1 -160 132 0 132 0 -1 165 0 165 25 1
c69 2 232 0 236 -3 3 -4 6 -602 5 -825 l-1 -63 -130 0 c-97 0 -130 3 -131 13
-1 6 -2 80 -3 162 l-1 150 -131 3 -132 3 0 -143 c0 -79 0 -153 -1 -165 -1 -23
-3 -23 -131 -23 l-130 0 0 444 c0 287 4 446 10 448 18 6 240 1 247 -5z m-889
-1086 c6 -39 -39 -56 -58 -22 -15 30 -2 53 29 49 19 -2 27 -10 29 -27z m145
17 c9 -26 -12 -60 -35 -56 -23 3 -34 28 -24 54 7 17 52 19 59 2z m142 -17 c0
-34 -30 -51 -51 -29 -25 24 -10 60 24 56 21 -2 27 -8 27 -27z m-671 -95 c73
-19 151 -37 172 -40 22 -4 51 -9 64 -11 121 -24 395 -24 530 -1 14 3 53 10 88
16 35 6 109 24 165 40 56 17 105 30 109 30 4 0 17 -18 27 -39 19 -36 19 -39 3
-44 -9 -3 -55 -17 -102 -31 -103 -32 -254 -63 -352 -73 -99 -9 -316 -9 -408 0
-175 19 -470 95 -470 122 0 21 22 65 32 65 6 0 69 -15 142 -34z"/>
<path d="M2467 4501 c-46 -23 -49 -67 -8 -113 26 -29 35 -33 81 -33 46 0 55 4
81 33 16 18 29 43 29 57 0 26 -34 64 -59 66 -74 6 -95 4 -124 -10z"/>
<path d="M2045 4471 c-3 -2 -5 -10 -5 -18 0 -10 21 -13 84 -13 83 0 102 6 88
26 -7 9 -158 14 -167 5z"/>
<path d="M2866 4472 c-3 -3 -6 -12 -6 -19 0 -11 19 -13 88 -11 69 2 87 6 87
18 0 12 -16 15 -82 16 -45 1 -84 -1 -87 -4z"/>
<path d="M4037 3252 c-15 -16 -15 -21 -4 -31 14 -11 47 -6 47 8 0 4 -6 15 -13
25 -12 16 -14 16 -30 -2z"/>
<path d="M4271 3253 c-11 -13 -11 -17 3 -31 14 -15 18 -15 31 -1 14 14 14 17
-2 31 -16 14 -20 14 -32 1z"/>
<path d="M765 3250 c-8 -14 13 -40 32 -40 7 0 16 7 20 16 10 26 -38 47 -52 24z"/>
<path d="M994 3245 c-9 -22 4 -35 36 -35 30 0 45 21 27 39 -16 16 -57 14 -63
-4z"/>
<path d="M1229 3249 c-5 -36 -2 -44 18 -47 21 -3 52 33 39 46 -10 10 -56 11
-57 1z"/>
<path d="M3790 3242 c0 -10 5 -23 12 -30 7 -7 20 -12 30 -12 13 0 18 8 18 30
0 27 -3 30 -30 30 -22 0 -30 -5 -30 -18z"/>
</g>
</svg>
